name Walk9.mot
datacolumns 19
datarows 22
range 1.33500000 1.35600000
endheader

                time	   L_ground_force_vx	   L_ground_force_vy	   L_ground_force_vz	   L_ground_force_px	   L_ground_force_py	   L_ground_force_pz	   R_ground_force_vx	   R_ground_force_vy	   R_ground_force_vz	   R_ground_force_px	   R_ground_force_py	   R_ground_force_pz	   L_ground_torque_x	   L_ground_torque_y	   L_ground_torque_z	   R_ground_torque_x	   R_ground_torque_y	   R_ground_torque_z	
          1.33500000	          0.00000000	          0.00000000	          0.00000000	          0.00000000	          0.00000000	          0.00000000	          0.00000000	          0.00000000	          0.00000000	          0.00000000	          0.00000000	          0.00000000	          0.00000000	          0.00000000	          0.00000000	          0.00000000	          0.00000000	          0.00000000	
          1.33600000	          0.00000000	          0.00000000	          0.00000000	          0.00000000	          0.00000000	          0.00000000	          0.00000000	          0.00000000	          0.00000000	          0.00000000	          0.00000000	          0.00000000	          0.00000000	          0.00000000	          0.00000000	          0.00000000	          0.00000000	          0.00000000	
          1.33700000	          0.00000000	          0.00000000	          0.00000000	          0.00000000	          0.00000000	          0.00000000	          0.00000000	          0.00000000	          0.00000000	          0.00000000	          0.00000000	          0.00000000	          0.00000000	          0.00000000	          0.00000000	          0.00000000	          0.00000000	          0.00000000	
          1.33800000	          0.00000000	          0.00000000	          0.00000000	          0.00000000	          0.00000000	          0.00000000	          0.00000000	          0.00000000	          0.00000000	          0.00000000	          0.00000000	          0.00000000	          0.00000000	          0.00000000	          0.00000000	          0.00000000	          0.00000000	          0.00000000	
          1.33900000	          0.52540170	         13.52057540	         -4.82092782	         -0.33488469	          0.00000000	         -0.05544163	          0.00000000	          0.00000000	          0.00000000	          0.00000000	          0.00000000	          0.00000000	          0.00000000	          0.07167838	          0.00000000	          0.00000000	          0.00000000	          0.00000000	
          1.34000000	          0.89202717	         20.66143205	         -6.70485806	         -0.33360846	          0.00000000	         -0.05572247	          0.00000000	          0.00000000	          0.00000000	          0.00000000	          0.00000000	          0.00000000	          0.00000000	          0.08343327	          0.00000000	          0.00000000	          0.00000000	          0.00000000	
          1.34100000	          1.39786012	         29.01928982	         -8.48324536	         -0.33268413	          0.00000000	         -0.05585367	          0.00000000	          0.00000000	          0.00000000	          0.00000000	          0.00000000	          0.00000000	          0.00000000	          0.08102398	          0.00000000	          0.00000000	          0.00000000	          0.00000000	
          1.34200000	          2.09697160	         38.86111722	        -10.10736558	         -0.33196449	          0.00000000	         -0.05571841	          0.00000000	          0.00000000	          0.00000000	          0.00000000	          0.00000000	          0.00000000	          0.00000000	          0.06593241	          0.00000000	          0.00000000	          0.00000000	          0.00000000	
          1.34300000	          3.04956247	         50.79233344	        -11.62551782	         -0.33131427	          0.00000000	         -0.05537321	          0.00000000	          0.00000000	          0.00000000	          0.00000000	          0.00000000	          0.00000000	          0.00000000	          0.04772230	          0.00000000	          0.00000000	          0.00000000	          0.00000000	
          1.34400000	          4.28538719	         65.56333970	        -13.09057327	         -0.33072631	          0.00000000	         -0.05500854	          0.00000000	          0.00000000	          0.00000000	          0.00000000	          0.00000000	          0.00000000	          0.00000000	          0.04071627	          0.00000000	          0.00000000	          0.00000000	          0.00000000	
          1.34500000	          5.78364034	         83.91482167	        -14.49971397	         -0.33022624	          0.00000000	         -0.05487878	          0.00000000	          0.00000000	          0.00000000	          0.00000000	          0.00000000	          0.00000000	          0.00000000	          0.05702507	          0.00000000	          0.00000000	          0.00000000	          0.00000000	
          1.34600000	          7.47671229	        106.37187890	        -15.77087254	         -0.32980818	          0.00000000	         -0.05511334	          0.00000000	          0.00000000	          0.00000000	          0.00000000	          0.00000000	          0.00000000	          0.00000000	          0.09950880	          0.00000000	          0.00000000	          0.00000000	          0.00000000	
          1.34700000	          9.24624409	        132.98779670	        -16.76069012	         -0.32944546	          0.00000000	         -0.05560774	          0.00000000	          0.00000000	          0.00000000	          0.00000000	          0.00000000	          0.00000000	          0.00000000	          0.16221922	          0.00000000	          0.00000000	          0.00000000	          0.00000000	
          1.34800000	         10.89655208	        163.14696982	        -17.31355978	         -0.32908318	          0.00000000	         -0.05615881	          0.00000000	          0.00000000	          0.00000000	          0.00000000	          0.00000000	          0.00000000	          0.00000000	          0.23817684	          0.00000000	          0.00000000	          0.00000000	          0.00000000	
          1.34900000	         12.14722753	        195.53169187	        -17.31920794	         -0.32867598	          0.00000000	         -0.05662028	          0.00000000	          0.00000000	          0.00000000	          0.00000000	          0.00000000	          0.00000000	          0.00000000	          0.32492518	          0.00000000	          0.00000000	          0.00000000	          0.00000000	
          1.35000000	         12.68098204	        228.32422150	        -16.75453355	         -0.32824202	          0.00000000	         -0.05695944	          0.00000000	          0.00000000	          0.00000000	          0.00000000	          0.00000000	          0.00000000	          0.00000000	          0.42344488	          0.00000000	          0.00000000	          0.00000000	          0.00000000	
          1.35100000	         12.22306427	        259.60946227	        -15.69496499	         -0.32782759	          0.00000000	         -0.05720490	          0.00000000	          0.00000000	          0.00000000	          0.00000000	          0.00000000	          0.00000000	          0.00000000	          0.53249338	          0.00000000	          0.00000000	          0.00000000	          0.00000000	
          1.35200000	         10.60645209	        287.81365381	        -14.30154665	         -0.32742935	          0.00000000	         -0.05736203	          0.00000000	          0.00000000	          0.00000000	          0.00000000	          0.00000000	          0.00000000	          0.00000000	          0.64176551	          0.00000000	          0.00000000	          0.00000000	          0.00000000	
          1.35300000	          7.79389817	        312.01452034	        -12.79715709	         -0.32698808	          0.00000000	         -0.05741969	          0.00000000	          0.00000000	          0.00000000	          0.00000000	          0.00000000	          0.00000000	          0.00000000	          0.73546703	          0.00000000	          0.00000000	          0.00000000	          0.00000000	
          1.35400000	          3.86575385	        332.03059249	        -11.42483932	         -0.32644390	          0.00000000	         -0.05739704	          0.00000000	          0.00000000	          0.00000000	          0.00000000	          0.00000000	          0.00000000	          0.00000000	          0.80752020	          0.00000000	          0.00000000	          0.00000000	          0.00000000	
          1.35500000	         -1.00835858	        348.30068923	        -10.38714599	         -0.32577912	          0.00000000	         -0.05733836	          0.00000000	          0.00000000	          0.00000000	          0.00000000	          0.00000000	          0.00000000	          0.00000000	          0.86853676	          0.00000000	          0.00000000	          0.00000000	          0.00000000	
          1.35600000	         -6.62071127	        361.62495155	         -9.79671007	         -0.32502534	          0.00000000	         -0.05728959	          0.00000000	          0.00000000	          0.00000000	          0.00000000	          0.00000000	          0.00000000	          0.00000000	          0.93693218	          0.00000000	          0.00000000	          0.00000000	          0.00000000	
